<?xml version="1.0" standalone="no"?>
<!DOCTYPE svg PUBLIC "-//W3C//DTD SVG 20010904//EN"
 "http://www.w3.org/TR/2001/REC-SVG-20010904/DTD/svg10.dtd">
<svg version="1.0" xmlns="http://www.w3.org/2000/svg"
 width="450.000000pt" height="450.000000pt" viewBox="0 0 450.000000 450.000000"
 preserveAspectRatio="xMidYMid meet">
<metadata>
Created by potrace 1.11, written by Peter Selinger 2001-2013
</metadata>
<g transform="translate(0.000000,450.000000) scale(0.100000,-0.100000)"
fill="#000000" stroke="none">
<path d="M27 3732 c-15 -16 -17 -53 -17 -314 l0 -295 23 -21 c17 -16 36 -22
69 -22 35 0 47 -4 49 -17 2 -10 4 -382 3 -828 l0 -810 -50 -3 c-33 -2 -56 -10
-71 -24 -23 -21 -23 -23 -23 -318 0 -275 1 -298 18 -313 17 -16 185 -17 2213
-17 l2195 0 31 27 30 28 1 275 0 275 -37 32 -36 33 -287 0 -288 0 0 340 0 340
325 0 325 0 0 150 0 150 -325 0 -325 0 0 340 0 340 288 0 287 0 36 33 37 32 0
275 -1 275 -30 28 -31 27 -2196 0 c-2116 0 -2198 -1 -2213 -18z m2810 -1045
c-1 -45 -3 -5 -3 88 0 94 2 130 3 82 2 -48 2 -125 0 -170z m-140 181 c-3 -7
-5 -2 -5 12 0 14 2 19 5 13 2 -7 2 -19 0 -25z m140 -740 c-1 -68 -3 -13 -3
122 0 135 2 190 3 123 2 -68 2 -178 0 -245z m0 -491 c-1 -45 -3 -5 -3 88 0 94
2 130 3 82 2 -48 2 -125 0 -170z m-140 -29 c-3 -7 -5 -2 -5 12 0 14 2 19 5 13
2 -7 2 -19 0 -25z"/>
</g>
</svg>
